<mxfile host="app.diagrams.net" modified="2023-12-09T13:00:08.608Z" agent="Mozilla/5.0 (Windows NT 10.0; Win64; x64) AppleWebKit/537.36 (KHTML, like Gecko) Chrome/119.0.0.0 Safari/537.36 Edg/119.0.0.0" etag="pYbImWy448uCWpiVs5H8" version="22.1.7" type="github">
  <diagram id="6a731a19-8d31-9384-78a2-239565b7b9f0" name="Page-1">
    <mxGraphModel dx="1750" dy="1852" grid="1" gridSize="10" guides="1" tooltips="1" connect="1" arrows="1" fold="1" page="1" pageScale="1" pageWidth="1169" pageHeight="827" background="none" math="0" shadow="0">
      <root>
        <mxCell id="0" />
        <mxCell id="1" parent="0" />
        <mxCell id="2" value="start" style="shape=mxgraph.flowchart.terminator;strokeWidth=2;gradientColor=none;gradientDirection=north;fontStyle=0;html=1;" parent="1" vertex="1">
          <mxGeometry x="425" y="-122.5" width="120" height="30" as="geometry" />
        </mxCell>
        <mxCell id="3" value="Select from dropdown menu (already exisiting data)&lt;br&gt;input of CurrentStation&lt;br&gt;input of DistanationStation&amp;nbsp;" style="shape=mxgraph.flowchart.data;strokeWidth=2;gradientColor=none;gradientDirection=north;fontStyle=0;html=1;" parent="1" vertex="1">
          <mxGeometry x="385" y="-52.5" width="200" height="110" as="geometry" />
        </mxCell>
        <mxCell id="7" style="fontStyle=1;strokeColor=#003366;strokeWidth=1;html=1;" parent="1" source="2" target="3" edge="1">
          <mxGeometry relative="1" as="geometry" />
        </mxCell>
        <mxCell id="8" style="fontStyle=1;strokeColor=#003366;strokeWidth=1;html=1;" parent="1" edge="1">
          <mxGeometry relative="1" as="geometry">
            <mxPoint x="485.13043478260875" y="57.5" as="sourcePoint" />
            <mxPoint x="485" y="170" as="targetPoint" />
            <Array as="points">
              <mxPoint x="485" y="117.5" />
            </Array>
          </mxGeometry>
        </mxCell>
        <mxCell id="45" value="" style="edgeStyle=elbowEdgeStyle;elbow=horizontal;exitX=1;exitY=0.5;exitPerimeter=0;entryX=0.905;entryY=0.5;entryPerimeter=0;fontStyle=1;strokeColor=#003366;strokeWidth=1;html=1;" parent="1" target="34" edge="1">
          <mxGeometry width="100" height="100" as="geometry">
            <mxPoint x="380.5" y="1119.2499999999995" as="sourcePoint" />
            <mxPoint x="100" as="targetPoint" />
            <Array as="points">
              <mxPoint x="950" y="1320" />
            </Array>
          </mxGeometry>
        </mxCell>
        <mxCell id="HRAHVRv39Yj4h_HKE1QI-59" style="edgeStyle=orthogonalEdgeStyle;rounded=0;orthogonalLoop=1;jettySize=auto;html=1;entryX=0;entryY=0.5;entryDx=0;entryDy=0;" edge="1" parent="1" source="HRAHVRv39Yj4h_HKE1QI-55" target="HRAHVRv39Yj4h_HKE1QI-56">
          <mxGeometry relative="1" as="geometry" />
        </mxCell>
        <mxCell id="HRAHVRv39Yj4h_HKE1QI-60" style="edgeStyle=orthogonalEdgeStyle;rounded=0;orthogonalLoop=1;jettySize=auto;html=1;entryX=0;entryY=0.5;entryDx=0;entryDy=0;" edge="1" parent="1" source="HRAHVRv39Yj4h_HKE1QI-55" target="HRAHVRv39Yj4h_HKE1QI-57">
          <mxGeometry relative="1" as="geometry" />
        </mxCell>
        <mxCell id="HRAHVRv39Yj4h_HKE1QI-55" value="CONST:Stations {}&lt;br&gt;&lt;br&gt;Stations list&amp;nbsp;" style="shape=internalStorage;whiteSpace=wrap;html=1;backgroundOutline=1;" vertex="1" parent="1">
          <mxGeometry x="660" y="90" width="170" height="135" as="geometry" />
        </mxCell>
        <mxCell id="HRAHVRv39Yj4h_HKE1QI-63" style="edgeStyle=orthogonalEdgeStyle;rounded=0;orthogonalLoop=1;jettySize=auto;html=1;entryX=0.5;entryY=0;entryDx=0;entryDy=0;" edge="1" parent="1" source="HRAHVRv39Yj4h_HKE1QI-56" target="HRAHVRv39Yj4h_HKE1QI-62">
          <mxGeometry relative="1" as="geometry">
            <mxPoint x="1070" y="200" as="targetPoint" />
          </mxGeometry>
        </mxCell>
        <mxCell id="HRAHVRv39Yj4h_HKE1QI-56" value="line1&lt;br&gt;station,&lt;br&gt;line1" style="shape=internalStorage;whiteSpace=wrap;html=1;backgroundOutline=1;" vertex="1" parent="1">
          <mxGeometry x="890" y="60" width="80" height="80" as="geometry" />
        </mxCell>
        <mxCell id="HRAHVRv39Yj4h_HKE1QI-64" style="edgeStyle=orthogonalEdgeStyle;rounded=0;orthogonalLoop=1;jettySize=auto;html=1;entryX=0;entryY=0.5;entryDx=0;entryDy=0;" edge="1" parent="1" source="HRAHVRv39Yj4h_HKE1QI-57" target="HRAHVRv39Yj4h_HKE1QI-62">
          <mxGeometry relative="1" as="geometry" />
        </mxCell>
        <mxCell id="HRAHVRv39Yj4h_HKE1QI-57" value="Line2&lt;br&gt;station&lt;br&gt;line2" style="shape=internalStorage;whiteSpace=wrap;html=1;backgroundOutline=1;" vertex="1" parent="1">
          <mxGeometry x="890" y="207.5" width="80" height="80" as="geometry" />
        </mxCell>
        <mxCell id="HRAHVRv39Yj4h_HKE1QI-65" style="edgeStyle=orthogonalEdgeStyle;rounded=0;orthogonalLoop=1;jettySize=auto;html=1;entryX=0.5;entryY=1;entryDx=0;entryDy=0;" edge="1" parent="1" source="HRAHVRv39Yj4h_HKE1QI-58" target="HRAHVRv39Yj4h_HKE1QI-62">
          <mxGeometry relative="1" as="geometry">
            <mxPoint x="1070" y="300" as="targetPoint" />
          </mxGeometry>
        </mxCell>
        <mxCell id="HRAHVRv39Yj4h_HKE1QI-58" value=":Line3&lt;br&gt;station&lt;br&gt;line3" style="shape=internalStorage;whiteSpace=wrap;html=1;backgroundOutline=1;" vertex="1" parent="1">
          <mxGeometry x="890" y="360" width="80" height="80" as="geometry" />
        </mxCell>
        <mxCell id="HRAHVRv39Yj4h_HKE1QI-61" style="edgeStyle=orthogonalEdgeStyle;rounded=0;orthogonalLoop=1;jettySize=auto;html=1;entryX=0.004;entryY=0.654;entryDx=0;entryDy=0;entryPerimeter=0;" edge="1" parent="1" source="HRAHVRv39Yj4h_HKE1QI-55" target="HRAHVRv39Yj4h_HKE1QI-58">
          <mxGeometry relative="1" as="geometry" />
        </mxCell>
        <mxCell id="HRAHVRv39Yj4h_HKE1QI-80" style="edgeStyle=orthogonalEdgeStyle;rounded=0;orthogonalLoop=1;jettySize=auto;html=1;entryX=1;entryY=0.75;entryDx=0;entryDy=0;" edge="1" parent="1" source="HRAHVRv39Yj4h_HKE1QI-62" target="HRAHVRv39Yj4h_HKE1QI-75">
          <mxGeometry relative="1" as="geometry">
            <Array as="points">
              <mxPoint x="1240" y="248" />
              <mxPoint x="1240" y="579" />
            </Array>
          </mxGeometry>
        </mxCell>
        <mxCell id="HRAHVRv39Yj4h_HKE1QI-62" value="isTransition = true&lt;br&gt;line[1,2,3]" style="shape=internalStorage;whiteSpace=wrap;html=1;backgroundOutline=1;" vertex="1" parent="1">
          <mxGeometry x="1030" y="208" width="190" height="80" as="geometry" />
        </mxCell>
        <mxCell id="HRAHVRv39Yj4h_HKE1QI-68" style="edgeStyle=orthogonalEdgeStyle;rounded=0;orthogonalLoop=1;jettySize=auto;html=1;entryX=0.504;entryY=-0.033;entryDx=0;entryDy=0;entryPerimeter=0;" edge="1" parent="1" source="HRAHVRv39Yj4h_HKE1QI-66" target="HRAHVRv39Yj4h_HKE1QI-73">
          <mxGeometry relative="1" as="geometry">
            <mxPoint x="170" y="260" as="targetPoint" />
          </mxGeometry>
        </mxCell>
        <mxCell id="HRAHVRv39Yj4h_HKE1QI-69" value="YES" style="edgeLabel;html=1;align=center;verticalAlign=middle;resizable=0;points=[];" vertex="1" connectable="0" parent="HRAHVRv39Yj4h_HKE1QI-68">
          <mxGeometry x="-0.1323" relative="1" as="geometry">
            <mxPoint as="offset" />
          </mxGeometry>
        </mxCell>
        <mxCell id="HRAHVRv39Yj4h_HKE1QI-70" style="edgeStyle=orthogonalEdgeStyle;rounded=0;orthogonalLoop=1;jettySize=auto;html=1;" edge="1" parent="1" source="HRAHVRv39Yj4h_HKE1QI-66">
          <mxGeometry relative="1" as="geometry">
            <mxPoint x="485" y="490" as="targetPoint" />
          </mxGeometry>
        </mxCell>
        <mxCell id="HRAHVRv39Yj4h_HKE1QI-71" value="NO" style="edgeLabel;html=1;align=center;verticalAlign=middle;resizable=0;points=[];" vertex="1" connectable="0" parent="HRAHVRv39Yj4h_HKE1QI-70">
          <mxGeometry x="-0.1008" y="2" relative="1" as="geometry">
            <mxPoint as="offset" />
          </mxGeometry>
        </mxCell>
        <mxCell id="HRAHVRv39Yj4h_HKE1QI-66" value="CHECK IF crntStation.line[0]&amp;nbsp;&lt;br&gt;=== disStation.line[0]&lt;br&gt;&lt;br&gt;check if transitioning&lt;br&gt;is needed" style="rhombus;whiteSpace=wrap;html=1;" vertex="1" parent="1">
          <mxGeometry x="382.5" y="170" width="205" height="180" as="geometry" />
        </mxCell>
        <mxCell id="HRAHVRv39Yj4h_HKE1QI-76" style="edgeStyle=orthogonalEdgeStyle;rounded=0;orthogonalLoop=1;jettySize=auto;html=1;entryX=0;entryY=0.5;entryDx=0;entryDy=0;" edge="1" parent="1" source="HRAHVRv39Yj4h_HKE1QI-72" target="HRAHVRv39Yj4h_HKE1QI-75">
          <mxGeometry relative="1" as="geometry" />
        </mxCell>
        <mxCell id="HRAHVRv39Yj4h_HKE1QI-72" value="FIRST THE NEAREST&lt;br&gt;isTransition = true&lt;br&gt;&lt;br&gt;(transitional station)&amp;nbsp;&lt;br&gt;" style="whiteSpace=wrap;html=1;aspect=fixed;" vertex="1" parent="1">
          <mxGeometry x="420" y="490" width="130" height="130" as="geometry" />
        </mxCell>
        <mxCell id="HRAHVRv39Yj4h_HKE1QI-78" style="edgeStyle=orthogonalEdgeStyle;rounded=0;orthogonalLoop=1;jettySize=auto;html=1;entryX=0;entryY=0.5;entryDx=0;entryDy=0;" edge="1" parent="1" source="HRAHVRv39Yj4h_HKE1QI-73" target="HRAHVRv39Yj4h_HKE1QI-77">
          <mxGeometry relative="1" as="geometry">
            <Array as="points">
              <mxPoint x="140" y="772" />
            </Array>
          </mxGeometry>
        </mxCell>
        <mxCell id="HRAHVRv39Yj4h_HKE1QI-79" style="edgeStyle=orthogonalEdgeStyle;rounded=0;orthogonalLoop=1;jettySize=auto;html=1;entryX=0.5;entryY=1;entryDx=0;entryDy=0;" edge="1" parent="1" source="HRAHVRv39Yj4h_HKE1QI-73" target="HRAHVRv39Yj4h_HKE1QI-55">
          <mxGeometry relative="1" as="geometry" />
        </mxCell>
        <mxCell id="HRAHVRv39Yj4h_HKE1QI-85" style="edgeStyle=orthogonalEdgeStyle;rounded=0;orthogonalLoop=1;jettySize=auto;html=1;entryX=0;entryY=0.5;entryDx=0;entryDy=0;" edge="1" parent="1" source="HRAHVRv39Yj4h_HKE1QI-73" target="HRAHVRv39Yj4h_HKE1QI-55">
          <mxGeometry relative="1" as="geometry">
            <Array as="points">
              <mxPoint x="150" y="158" />
            </Array>
          </mxGeometry>
        </mxCell>
        <mxCell id="HRAHVRv39Yj4h_HKE1QI-73" value="find direction&amp;nbsp;&lt;br&gt;[1,2,3,4,5,]&lt;br&gt;if crntStation.indexOf is low then go towards the first station&lt;br&gt;&lt;br&gt;else go to the laststation.indexOf" style="shape=process;whiteSpace=wrap;html=1;backgroundOutline=1;" vertex="1" parent="1">
          <mxGeometry x="70" y="380" width="190" height="160" as="geometry" />
        </mxCell>
        <mxCell id="HRAHVRv39Yj4h_HKE1QI-86" style="edgeStyle=orthogonalEdgeStyle;rounded=0;orthogonalLoop=1;jettySize=auto;html=1;entryX=0.5;entryY=1;entryDx=0;entryDy=0;" edge="1" parent="1" source="HRAHVRv39Yj4h_HKE1QI-75" target="HRAHVRv39Yj4h_HKE1QI-73">
          <mxGeometry relative="1" as="geometry">
            <Array as="points">
              <mxPoint x="165" y="650" />
            </Array>
          </mxGeometry>
        </mxCell>
        <mxCell id="HRAHVRv39Yj4h_HKE1QI-75" value="check if transitional&lt;br&gt;check if same line&amp;nbsp;&lt;br&gt;as either crnt or distanation&lt;br&gt;&lt;br&gt;&lt;br&gt;" style="shape=process;whiteSpace=wrap;html=1;backgroundOutline=1;" vertex="1" parent="1">
          <mxGeometry x="660" y="565" width="170" height="95" as="geometry" />
        </mxCell>
        <mxCell id="HRAHVRv39Yj4h_HKE1QI-77" value="PROVIDE INSTRUCTIONS FROM THE JOURNEY&amp;nbsp;&lt;br&gt;by outputting&lt;br&gt;&lt;br&gt;Go to X Direction&lt;br&gt;in X Line&lt;br&gt;&lt;br&gt;if needed to transtition then stop at X transitional station and go to X direction in the next line" style="whiteSpace=wrap;html=1;aspect=fixed;" vertex="1" parent="1">
          <mxGeometry x="395" y="710" width="180" height="180" as="geometry" />
        </mxCell>
        <mxCell id="HRAHVRv39Yj4h_HKE1QI-82" value="check if i&#39;m in a transitional station or not&amp;nbsp;&lt;br&gt;if yes and i need to transition treat the shared lines as one line&amp;nbsp;&lt;br&gt;&lt;br&gt;if there&#39;s no shared lines and there&#39;s another transtional station i need to use then treat it as a normal transitonal station and treat the current station as the same path from currentStation.line" style="ellipse;whiteSpace=wrap;html=1;aspect=fixed;" vertex="1" parent="1">
          <mxGeometry x="610" y="295" width="210" height="210" as="geometry" />
        </mxCell>
      </root>
    </mxGraphModel>
  </diagram>
</mxfile>
